<svg enable-background="new 0 0 1334 680" viewBox="0 0 1334 680" xmlns="http://www.w3.org/2000/svg" xmlns:xlink="http://www.w3.org/1999/xlink"><linearGradient id="a"><stop offset="0" stop-color="#e51f58"/><stop offset=".1669" stop-color="#df1f58"/><stop offset=".3871" stop-color="#e11f58"/><stop offset="1" stop-color="#4f2453"/></linearGradient><linearGradient id="b" gradientUnits="userSpaceOnUse" x1="283.574" x2="283.574" xlink:href="#a" y1="480.8864" y2="400.8864"/><linearGradient id="c" gradientTransform="matrix(.9848 .1736 -.1736 .9848 145.1481 -168.6858)" gradientUnits="userSpaceOnUse" x1="189.3116" x2="189.3116" xlink:href="#a" y1="610.6631" y2="540.6747"/><linearGradient id="d" gradientUnits="userSpaceOnUse" x1="47.6502" x2="47.6502" xlink:href="#a" y1="489.0375" y2="409.0375"/><linearGradient id="e" gradientTransform="matrix(.9848 -.1736 .1736 .9848 -113.376 169.4734)" gradientUnits="userSpaceOnUse" x1="200.9739" x2="200.9739" xlink:href="#a" y1="313.2799" y2="268.2874"/><linearGradient id="f" gradientUnits="userSpaceOnUse" x1="329.6648" x2="329.6648" xlink:href="#a" y1="470.8953" y2="425.9028"/><linearGradient id="g" gradientTransform="matrix(.9848 -.1736 .1736 .9848 -116.6003 163.8905)" gradientUnits="userSpaceOnUse" x1="164.6381" x2="164.6381" xlink:href="#a" y1="329.3702" y2="277.3789"/><linearGradient id="h" gradientUnits="userSpaceOnUse" x1="667" x2="667" y1="679.999" y2="225.3579"><stop offset=".4885" stop-color="#e51f58"/><stop offset=".6119" stop-color="#b22156"/><stop offset=".7336" stop-color="#872255"/><stop offset=".8426" stop-color="#682354"/><stop offset=".9351" stop-color="#562453"/><stop offset="1" stop-color="#4f2453"/></linearGradient><linearGradient id="i" gradientUnits="userSpaceOnUse" x1="177.7723" x2="177.7723" y1="273.8305" y2="1.8866"><stop offset="0" stop-color="#4f2453"/><stop offset=".198" stop-color="#681f55"/><stop offset=".5489" stop-color="#901858"/><stop offset=".8285" stop-color="#a8145a"/><stop offset="1" stop-color="#b1125b"/></linearGradient><linearGradient id="j"><stop offset="0" stop-color="#7d2062"/><stop offset=".003107369" stop-color="#7e2062"/><stop offset=".2064" stop-color="#a3205e"/><stop offset=".4098" stop-color="#c01f5c"/><stop offset=".611" stop-color="#d41f5a"/><stop offset=".8089" stop-color="#e11f58"/><stop offset="1" stop-color="#e51f58"/></linearGradient><linearGradient id="k" gradientUnits="userSpaceOnUse" x1="122.1646" x2="122.1646" xlink:href="#j" y1="273.8305" y2="169.77"/><linearGradient id="l" gradientTransform="matrix(-1 0 0 1 1442.2003 0)" gradientUnits="userSpaceOnUse" x1="1208.8204" x2="1208.8204" xlink:href="#j" y1="273.8305" y2="169.77"/><circle cx="283.6" cy="440.9" fill="url(#b)" r="40"/><circle cx="231.6" cy="431.1" fill="url(#c)" r="35"/><circle cx="47.7" cy="449" fill="url(#d)" r="40"/><circle cx="135" cy="420.9" fill="url(#e)" r="22.5"/><circle cx="329.7" cy="448.4" fill="url(#f)" r="22.5"/><circle cx="98.2" cy="434.1" fill="url(#g)" r="26"/><circle cx="268" cy="380.2" fill="#4f2453" r="3.5"/><circle cx="63.3" cy="364.9" fill="#7d2062" r="7.5"/><circle cx="218.8" cy="364.8" fill="#b2125b" r="7.5"/><ellipse cx="225.6" cy="320.8" fill="#e61f58" rx="5" ry="5"/><path d="m141.8 351.1c0 1.9-1.6 3.5-3.5 3.5s-3.5-1.6-3.5-3.5 1.6-3.5 3.5-3.5 3.5 1.6 3.5 3.5z" fill="#e61f58"/><path d="m106.7 381.8c0 2.5-2 4.5-4.5 4.5s-4.5-2-4.5-4.5 2-4.5 4.5-4.5c2.4 0 4.5 2 4.5 4.5z" fill="#4f2453"/><path d="m300.9 354.6c0 2.5-2 4.5-4.5 4.5s-4.5-2-4.5-4.5 2-4.5 4.5-4.5 4.5 2 4.5 4.5z" fill="#7d2062"/><path d="m115.1 323.7c0 1.7-1.3 3-3 3s-3-1.3-3-3 1.3-3 3-3c1.6 0 3 1.3 3 3z" fill="#e61f58"/><path d="m260.3 345.5c0 1.1-.9 2-2 2s-2-.9-2-2 .9-2 2-2 2 .9 2 2z" fill="#e61f58"/><path d="m875 411c-110.7 0-245 37.2-464.5 37.2-70.9 0-194.9-17.3-216.5-61-11.3-23-7.6-53.8-2.3-78.6 1-4.6 2.4-9.1 3.8-13.6.1-.2.1-.3.1-.5s.1-.3.1-.5c.1-.3.1-.6.2-.9 0-.1.1-.2.1-.4.1-.4.1-.9.2-1.3 0-.1 0-.2 0-.3 0-.4.1-.7.1-1.1 0-.2 0-.3 0-.5 0-.3 0-.6 0-.9 0-.2 0-.3 0-.5 0-.3-.1-.6-.1-.8s0-.3-.1-.5c0-.3-.1-.6-.2-.9 0-.2-.1-.3-.1-.5-.1-.4-.2-.7-.3-1.1 0-.1 0-.2-.1-.3-.1-.4-.3-.9-.5-1.3 0-.1-.1-.2-.1-.3-.1-.3-.3-.6-.4-.9-.1-.2-.2-.3-.2-.4-.1-.3-.3-.5-.4-.8-.1-.2-.2-.3-.3-.5-.2-.2-.3-.5-.5-.7-.1-.1-.2-.3-.3-.4-.2-.3-.4-.5-.6-.8-.1-.1-.2-.2-.3-.4-.3-.4-.6-.7-1-1.1-3.6-3.6-8.3-5.4-13.1-5.4-1.8 0-3.6.3-5.3.8-2.9.8-5.6 2.4-7.8 4.6-.3.3-.7.7-1 1.1-.1.1-.2.2-.3.4-.2.2-.4.5-.6.8-.1.1-.2.3-.3.4-.2.2-.3.5-.5.7-.1.2-.2.3-.3.5-.1.3-.3.5-.4.8-.1.1-.2.3-.2.4-.1.3-.3.6-.4.9 0 .1-.1.2-.1.3-.2.4-.3.9-.5 1.3 0 .1 0 .2-.1.2-.1.4-.2.7-.3 1.1 0 .2-.1.3-.1.5-.1.3-.1.6-.2.9 0 .2 0 .3-.1.5 0 .3-.1.6-.1.9v.5.9.5c0 .4 0 .7.1 1.1v.3c0 .4.1.9.2 1.3 0 .1 0 .2.1.4.1.3.1.6.2 1 0 .2.1.3.1.5s.1.3.1.5c1.4 4.5 2.8 9 3.8 13.6 5.3 24.8 8.7 55.5-2.3 78.6-20 42.2-99.2 63.2-161.7 63.2v229.5h1334v-229.6c-265.7 0-338-39.4-458.7-39.4z" fill="url(#h)"/><g fill="#fff"><path d="m743.3 520.2c0 1.9-1.6 3.5-3.5 3.5s-3.5-1.6-3.5-3.5 1.6-3.5 3.5-3.5 3.5 1.6 3.5 3.5zm137.5-62.5c-1.4 0-2.5 1.1-2.5 2.5s1.1 2.5 2.5 2.5 2.5-1.1 2.5-2.5-1.1-2.5-2.5-2.5zm-442.3 51.5c-1.9 0-3.5 1.6-3.5 3.5s1.6 3.5 3.5 3.5 3.5-1.6 3.5-3.5-1.6-3.5-3.5-3.5zm521.5 102c-4.1 0-7.5 3.4-7.5 7.5s3.4 7.5 7.5 7.5 7.5-3.4 7.5-7.5-3.4-7.5-7.5-7.5zm139.1-46.3c-1.9 0-3.5 1.6-3.5 3.5s1.6 3.5 3.5 3.5 3.5-1.6 3.5-3.5c0-2-1.6-3.5-3.5-3.5zm-406.1 48.7c-2.5 0-4.5 2-4.5 4.5s2 4.5 4.5 4.5 4.5-2 4.5-4.5-2-4.5-4.5-4.5zm555.4-110.9c-2.5 0-4.5 2-4.5 4.5s2 4.5 4.5 4.5 4.5-2 4.5-4.5-2-4.5-4.5-4.5zm-715.9 64.5-2.7 4.8-4.9 2.6 4.8 2.7 2.6 4.9 2.7-4.8 4.9-2.6-4.8-2.7zm-220-101-2.7 4.8-4.9 2.6 4.8 2.7 2.6 4.9 2.7-4.8 4.9-2.6-4.8-2.7zm-268.4 97.5-1.8 3.2-3.3 1.7 3.2 1.8 1.7 3.3 1.8-3.2 3.3-1.7-3.2-1.8zm805.1.8-2.2 3.8-3.9 2 3.8 2.2 2 3.9 2.2-3.8 3.9-2-3.8-2.2zm-237.5-72.5-1.8 3.2-3.3 1.7 3.2 1.8 1.7 3.3 1.8-3.2 3.3-1.7-3.2-1.8zm-217.8 106.2-1.8 3.2-3.3 1.7 3.2 1.8 1.7 3.3 1.8-3.2 3.3-1.7-3.2-1.8zm800 2.5-2.9 5.1-5.2 2.7 5.1 2.9 2.7 5.2 2.9-5.1 5.2-2.7-5.1-2.9zm-194.7-92.3-1.6 2.9-2.9 1.5 2.9 1.6 1.5 2.9 1.6-2 2.9-1.5-2.9-1.6z" opacity=".3"/><circle cx="177.7" cy="520" opacity=".3" r="160"/><circle cx="177.7" cy="520" opacity=".15" r="125"/></g><path d="m115.8 548.5-2.2-11.8h-12.5l-2 11.8h-10.3l11.5-56.9h14l12 56.9zm-13.3-19.7h9.7l-5-27.2zm45.9 9.3v-12.2c0-1-.2-1.6-.5-1.9-.4-.3-1-.5-2-.5h-7.3c-6.2 0-9.3-3-9.3-9v-14c0-6 3.2-8.9 9.7-8.9h9.9c6.5 0 9.7 3 9.7 8.9v7.9h-10.5v-6.5c0-1-.2-1.6-.5-1.9-.4-.3-1-.5-2-.5h-3.4c-1 0-1.7.2-2.1.5s-.5 1-.5 1.9v11.5c0 1 .2 1.6.5 1.9.4.3 1.1.5 2.1.5h7.1c6.3 0 9.5 2.9 9.5 8.8v14.9c0 6-3.3 8.9-9.8 8.9h-9.7c-6.6 0-9.8-3-9.8-8.9v-7.8h10.4v6.4c0 1 .2 1.6.5 1.9.4.3 1.1.5 2.1.5h3.4c1 0 1.6-.2 2-.5.3-.3.5-1 .5-1.9zm45.3-46.6v7.9h-10v49h-10.4v-49h-9.9v-7.9zm15.5 34.8v22.2h-10.4v-56.9h20.9c6.6 0 9.8 3 9.8 8.9v16.9c0 4.9-2.2 7.8-6.6 8.7l9.5 22.5h-11.2l-8.7-22.2h-3.3zm0-26.8v19.1h7.5c1 0 1.6-.2 2-.5s.5-1 .5-1.9v-14.3c0-1-.2-1.6-.5-1.9-.4-.3-1-.5-2-.5zm36.6-8h11c6.6 0 9.8 3 9.8 8.9v39.1c0 6-3.3 8.9-9.8 8.9h-11c-6.6 0-9.8-3-9.8-8.9v-39.1c0-5.9 3.3-8.9 9.8-8.9zm10.5 46.6v-36.2c0-1-.2-1.6-.5-1.9-.4-.3-1-.5-2-.5h-4.8c-1 0-1.7.2-2.1.5s-.5 1-.5 1.9v36.2c0 1 .2 1.6.5 1.9.4.3 1.1.5 2.1.5h4.8c1 0 1.6-.2 2-.5.3-.3.5-1 .5-1.9z" fill="#18112c"/><path d="m262.2 187c-4.5-6.4-9.4-12.1-14.6-17.2 2.3-11.1 3.4-22.4 3.4-33.7 0-55.1-27.4-106.4-71.5-133.7-.1-.1-.2-.1-.3-.1-.5-.2-1-.4-1.5-.4s-1 .1-1.5.4c-.1 0-.2.1-.3.1-44.1 27.3-71.5 78.5-71.5 133.7 0 11.3 1.2 22.6 3.4 33.7-5.1 5.1-10 10.9-14.6 17.2-.6.8-.8 1.9-.5 2.9l24.9 81.6c.4 1.2 1.3 2.1 2.5 2.3s2.5-.2 3.2-1.1c7.1-8.4 16.9-15.1 28-18.9v5.1c0 1.8 1.5 3.3 3.4 3.3h45.7c1.9 0 3.4-1.5 3.4-3.3v-5.1c11.1 3.9 20.9 10.5 28 18.9.8.9 2 1.4 3.2 1.1 1.2-.2 2.2-1.1 2.5-2.3l24.9-81.6c.5-1 .4-2.1-.2-2.9z" fill="url(#i)"/><path d="m107.9 169.8c-5.1 5.1-10 10.9-14.6 17.2-.6.8-.8 1.9-.5 2.9l24.9 81.6c.4 1.2 1.3 2.1 2.5 2.3s2.5-.2 3.2-1.1c7.1-8.4 16.9-15.1 28-18.9.2-7.6-30.7-38.6-43.5-84z" fill="url(#k)"/><path d="m247.6 169.8c5.1 5.1 10 10.9 14.6 17.2.6.8.8 1.9.5 2.9l-24.9 81.6c-.4 1.2-1.3 2.1-2.5 2.3s-2.5-.2-3.2-1.1c-7.1-8.4-16.9-15.1-28-18.9-.1-7.6 30.8-38.6 43.5-84z" fill="url(#l)"/><path d="m203.1 226.8c-.5 0-1-.1-1.4-.4-1.2-.8-1.6-2.4-.8-3.7l.4-.6c13.4-21.1 31.6-50.1 31.6-89.5 0-1.5 1.2-2.7 2.7-2.7s2.7 1.2 2.7 2.7c0 41-18.8 70.7-32.5 92.4l-.4.6c-.6.7-1.5 1.2-2.3 1.2z" fill="#fff"/><path d="m197.9 77.6c.5 0 .9.2 1.2.6l10.2 14.1c.4.5.3 1.3-.1 1.8l-30.4 32.4c-.3.3-.7.5-1.1.5s-.8-.2-1.1-.5l-30.4-32.5c-.5-.5-.5-1.2-.1-1.8l10.2-14.1c.3-.4.7-.6 1.2-.6h40.4m0-3.4h-40.4c-1.6 0-3.1.8-4 2.1l-10.2 14.1c-1.4 1.9-1.2 4.5.4 6.2l30.4 32.4c.9 1 2.3 1.6 3.6 1.6 1.4 0 2.7-.6 3.6-1.6l30.4-32.4c1.6-1.7 1.8-4.3.4-6.2l-10.2-14.1c-.9-1.3-2.4-2.1-4-2.1z" fill="#e51f58"/><path d="m209.2 92.3-10.2-14.1c-.3-.4-.7-.6-1.2-.6h-40.4c-.5 0-.9.2-1.2.6l-10.2 14.1c-.4.5-.3 1.3.1 1.8l.1.1.6.6 9.4-13c.3-.4.7-.6 1.2-.6h40.4c.5 0 .9.2 1.2.6l9.4 13 .6-.6.1-.1c.5-.6.5-1.3.1-1.8z" fill="#4f2453"/><path d="m178.7 126.4 29.7-31.7-9.4-13c-.3-.4-.7-.6-1.2-.6h-40.4c-.5 0-.9.2-1.2.6l-9.4 13 29.8 31.7c.6.6 1.5.6 2.1 0z" fill="#fff"/></svg>