<svg enable-background="new 0 0 305.8 47.2" viewBox="0 0 305.8 47.2" xmlns="http://www.w3.org/2000/svg" xmlns:xlink="http://www.w3.org/1999/xlink"><linearGradient id="a" gradientTransform="matrix(1 0 0 -1 0 -2477)" gradientUnits="userSpaceOnUse" x1="30.49" x2="56.93" y1="-2489.24" y2="-2515.6799"><stop offset="0" stop-color="#e7332e"/><stop offset="1" stop-color="#ed7c6f"/></linearGradient><linearGradient id="b" gradientTransform="matrix(1 0 0 -1 0 -2477)" gradientUnits="userSpaceOnUse" x1="37" x2="37" y1="-2496.1399" y2="-2477.6899"><stop offset="0" stop-color="#f19d96"/><stop offset="1" stop-color="#eb7063"/></linearGradient><linearGradient id="c" gradientTransform="matrix(1 0 0 -1 0 -2477)" gradientUnits="userSpaceOnUse" x1="64.35" x2="64.35" y1="-2495.48" y2="-2479.45"><stop offset=".01" stop-color="#f6c0bd"/><stop offset="1" stop-color="#ef918b"/></linearGradient><linearGradient id="d" gradientTransform="matrix(1 0 0 -1 0 -2477)" gradientUnits="userSpaceOnUse" x1="50.9697" x2="65.1697" y1="-2496.0603" y2="-2510.2703"><stop offset="0" stop-color="#e95750"/><stop offset="1" stop-color="#f09580"/></linearGradient><path d="m96 15.6v-5.9c.1-2.2-.7-4.3-2.3-5.8s-3.7-2.3-5.9-2.2h-5.3v6.2h4.6c1.4-.1 2.5 1 2.6 2.3v.3 6.5c-.1 1.8.6 3.5 1.8 4.7 1.3 1.2 3 1.9 4.7 2.2-1.7.2-3.4 1-4.7 2.1-1.2 1.3-1.9 3-1.8 4.7v6.5c.1 1.4-1 2.5-2.3 2.6-.1 0-.2 0-.3 0h-4.6v6.2h5.3c2.2.1 4.3-.7 5.9-2.2 1.5-1.5 2.4-3.7 2.3-5.8v-5.8c0-3.2 1.7-5.1 5.4-5.1v-6.4c-3.7-0-5.4-1.9-5.4-5.1z"/><path d="m11.6 17v-6.5c-.1-1.4 1-2.5 2.3-2.6h.3 4.6v-6.2h-5.3c-2.2-.1-4.3.7-5.9 2.2-1.5 1.5-2.3 3.6-2.2 5.8v5.9c0 3.2-1.7 5.1-5.4 5.1v6.4c3.6 0 5.4 1.9 5.4 5.1v5.8c-.1 2.2.7 4.3 2.2 5.8 1.6 1.5 3.8 2.3 6 2.2h5.3v-6.2h-4.7c-1.4.1-2.5-1-2.6-2.3 0-.1 0-.2 0-.3v-6.4c.1-1.8-.5-3.5-1.8-4.8-1.3-1.2-3-1.9-4.7-2.2 1.8-.2 3.4-1 4.7-2.1 1.3-1.3 1.9-3 1.8-4.7z"/><path d="m23.3 18 27.4 28.9v-28.9z" fill="url(#a)"/><path d="m50.7 2.3h-19.6l-7.8 15.7h27.4z" fill="url(#b)"/><path d="m78 18-7.8-15.7h-19.5v15.7z" fill="url(#c)"/><path d="m50.7 18v28.9l27.3-28.9z" fill="url(#d)"/><path d="m112.3 36.9h9l2.2-11.3h-8.5v-7.3h9.7l1.5-8h-12.2v-7.1h41.3v7.1h-21l-1.4 8h17.8v18.6h6.1v6.9h-44.4v-6.9zm30.5-11.4h-11.3l-2 11.3h13.4z"/><path d="m171.9 45.7h-6.8v-19.2c-.3.5-.8 1.2-1.5 2.2s-1.4 1.7-1.7 2.2c-.2-1.2-.3-2.7-.5-4.6-.2-2.4-.5-4.2-.7-5.6 3.2-6.3 5.4-12.7 6.9-19.8l7.4 1.9c-.8 3.4-2 6.8-3.2 10zm32-33.7h-7.4l4.7 1.5c-.2.5-.7 1.2-1.4 2.2-.7 1.2-1 1.9-1.5 2.4h6.9v5.9h-31.7v-5.9h6.8l-2.7-4.1 4.2-2h-6.6v-6h10.8v-4.9h7.1v4.9h10.8zm-20.9 33.5h-7.1v-18.6h27.4v18.6h-7.1v-2h-13.2zm0-12.5v4.9h13.2v-4.9zm4.9-16.6-3.2 1.7h6.3c1.4-2.2 2.4-4.2 3-6.1h-9.5c1.2 1.5 2.3 3 3.4 4.4z"/><path d="m209.9 32.3h21l2.7-2h-14.4v-5.1h25.7v4.4l-4.2 2.5h13.4v5.6h-16.4v1.9c0 3.6-1.9 5.4-5.6 5.6-.8 0-2.4 0-4.6 0-2.4.2-4.1.2-5.1.2-.7-3-1-4.9-1.4-5.4.7.2 2.9.2 6.8.2 1.7 0 2.5-.7 2.4-1.9v-.5h-20.3zm25.5-31.7 3 2.7c-1 .7-2 1.5-2.9 2.2.8.5 1.9 1.2 2.9 1.9l-1.9 2.2 1.9 1.7c-.2.2-.7.7-1.5 1.2-.7.7-1 1-1.5 1.4.8.7 1.9 1.4 3.2 2l-2.4 3h8v-1.9h-5.2v-3.6h5.4v-1.7h-5.4v-3.5h5.6v-1.8h-6.4v-4.4h13.4l-.8 16.9h2.4v9.7h-6.6v-5.1h-29.6v5.1h-6.6v-9.7h2l-.7-16.3c5.1-.7 9-1.4 11.7-2l1.7 5.2c-1.7.3-3.9.7-6.4 1.2v1.4h5.6v3.4h-5.1v1.7h5.4v3.5h-5.2v1.9h7.6c-.2-.2-.3-.7-.7-1.2-.7-1.2-1-1.9-1.5-2.2 1.4-.7 2.4-1.2 3.2-1.7-.3-.2-.8-.7-1.7-1.2-.5-.3-.8-.7-1.4-.8l1.7-1.7c-.7-.7-1.4-1.7-2-2.5.3-.2 1-.5 1.9-.8.7-.5 1.4-.8 1.7-.8-.3-.2-.8-.7-1.5-1.2-.7-.3-1.4-.7-1.7-.8l2.4-2.7c.8.3 2 1 3.6 2 .3.2.7.5.8.5.3-.3 1-.8 1.9-1.5.9-1 1.4-1.5 1.7-1.7zm-3.3 15.8c-1.2.8-2.5 1.7-3.9 2.4h6.9c-.3-.3-1-.8-1.9-1.5-.5-.3-1-.6-1.1-.9zm0-8.2c-.7.3-1.5.8-2.7 1.5.5.2 1 .7 1.9 1.2.3.2.7.5.8.5.3-.2.8-.5 1.5-1.2.3-.2.7-.5.7-.5-.2-.2-.7-.5-1-.7-.7-.4-1.1-.6-1.2-.8z"/><path d="m272 20.9c2 3.2 3 6.6 3 10.2.2 5.4-1.5 8.3-5.1 8.8-.2 0-.2 0-.3.2-.7.2-1.4.2-2 .2l-1.7-4.9v10.2h-5.9v-43h14.6v6.8zm-6.1-11.5v23.6h1.4c1.2.2 1.9-1 1.9-3.6 0-2-.8-4.7-2.7-8l2.5-11.8zm31.7 22.7c1.9.7 3.7 1.4 5.4 2 0 .2 0 .5-.2.8-.2 2.7-.5 4.6-.8 5.6-.2 2.9-2.2 4.2-5.9 4.2h-1.5c-4.1.2-6.1-1.7-6.1-5.2v-9.7h-2.4c.2 7.1-3 12.4-9.7 16.1-.3-.5-1.2-1.4-2.4-2.5-1-1.4-1.9-2.4-2.4-2.7 5.6-2.2 8.3-5.8 7.8-10.7h-4.4v-6.4h27.3v6.3h-7.3v8c0 .7.2 1.2.5 1.2h.3c.7 0 .8-.5.8-1.4.8-1.4 1-3.2 1-5.6zm-5.9-31.3v4.6h10.5v10.2h-2.4v5.4h-22v-5.4h-2.5v-10.2h9.3v-4.6zm-10 11v3.2h14.1v-3.2z"/></svg>